<svg id="SvgjsSvg1176" width="288" height="288" xmlns="http://www.w3.org/2000/svg" version="1.1" xmlns:xlink="http://www.w3.org/1999/xlink" xmlns:svgjs="http://svgjs.com/svgjs"><defs id="SvgjsDefs1177"></defs><g id="SvgjsG1178"><svg xmlns="http://www.w3.org/2000/svg" viewBox="0 0 24 24" width="288" height="288"><path d="M9,18a9,9,0,1,1,9-9A9.011,9.011,0,0,1,9,18ZM9,2a7,7,0,1,0,7,7A7.008,7.008,0,0,0,9,2Z" fill="#767676" class="color000 svgShape"></path><path d="M23,24a1,1,0,0,1-.707-.293l-8-8a1,1,0,0,1,1.414-1.414l8,8A1,1,0,0,1,23,24Z" fill="#767676" class="color000 svgShape"></path></svg></g></svg>